<?xml version="1.0" encoding="utf-8"?>
<!-- Generator: Adobe Illustrator 26.0.1, SVG Export Plug-In . SVG Version: 6.00 Build 0)  -->
<svg version="1.1" id="Layer_1" xmlns="http://www.w3.org/2000/svg" xmlns:xlink="http://www.w3.org/1999/xlink" x="0px" y="0px"
	 viewBox="0 0 516 500" style="enable-background:new 0 0 516 500;" xml:space="preserve">
<style type="text/css">
	.st0{fill:#4E4E4E;}
	.st1{fill:#75AADB;}
	.st2{fill:#FFFFFF;}
</style>
<g>
	<g>
		<path class="st0" d="M200.26,324.14c4.7,8.31,11.42,14.6,18.67,14.6c10.72,0,16.97-15.66,16.97-38.25
			c0-20.58-4.32-32.92-15.28-44.22c-13.23-13.31-21.41-32.6-21.41-63.83c0-34.94,10.46-60.85,26.23-60.85
			c8.18,0,14.31,5.33,17.82,10.98l-2.89,23.65c-2.54-4.36-7.95-10.65-15.28-10.65c-11.07,0-15.28,18.32-15.28,33.57
			c0,20.98,4.94,31.23,16.13,43.25c13.73,14.61,20.6,32.92,20.6,65.85c0,34.54-9.14,64.8-28.28,64.8c-7.83,0-16.36-6.62-20.71-14.61
			L200.26,324.14z M272.97,159.92v38.57h15.16v22.27h-15.16v86.75c0,19.93,2.05,31.23,7.95,31.23c2.89,0,4.59-0.64,6.14-2.02
			l0.47,22.27c-2.05,2.02-5.29,3.95-9.38,3.95c-4.94,0-8.91-4.68-11.42-12.27c-2.89-8.96-4.09-23.24-4.09-42.21v-87.72h-9.03v-22.27
			h9.03v-29.94L272.97,159.92z M348.78,315.18c0,16.95,0.12,31.55,0.47,44.22h-9.38l-0.61-26.23h-0.23
			c-2.66,12.99-8.91,29.94-19.25,29.94c-9.14,0-20.1-14.28-20.1-70.45v-94.17h10.6v88.77c0,30.58,3.48,51.56,13,51.56
			c7.1,0,12.04-13.64,13.96-26.95c0.61-3.95,0.96-9.28,0.96-14.93v-98.45h10.61v116.69H348.78z M416.56,123.36v194.48
			c0,14.28,0.23,30.59,0.47,41.56h-9.38l-0.47-27.92h-0.35c-3.13,17.91-10.11,31.55-19.63,31.55c-14.08,0-25.04-32.93-25.04-81.83
			c-0.12-53.5,12.04-86.1,26.12-86.1c9.03,0,14.93,11.62,17.59,24.29h0.23v-96.03L416.56,123.36z M406.07,263.94
			c0-3.63-0.12-8.63-0.47-12.27c-1.58-18.32-7.33-33.57-15.28-33.57c-10.96,0-17.44,26.63-17.44,61.82c0,32.6,5.9,59.55,17.21,59.55
			c7.1,0,13.61-13.31,15.51-34.94c0.35-3.95,0.47-7.99,0.47-12.67V263.94z M446.03,153.22c0,10.01-2.54,17.92-6.75,17.92
			c-3.86,0-6.37-7.99-6.37-17.92c0-10.01,2.66-18.32,6.63-18.32C443.38,134.98,446.03,142.97,446.03,153.22L446.03,153.22z
			 M434.23,359.4V198.49h10.6V359.4H434.23z M515.12,277.57c0,59.47-15.05,85.46-29.01,85.46c-15.66,0-27.93-31.96-27.93-82.8
			c0-53.5,12.88-85.14,28.89-85.14C503.82,195.18,515.12,228.75,515.12,277.57L515.12,277.57z M469.02,279.27
			c0,35.27,7.22,61.82,17.59,61.82c10.11,0,17.7-26.23,17.7-62.54c0-27.28-4.94-61.49-17.44-61.49
			C474.43,217.05,469.02,249.01,469.02,279.27L469.02,279.27z M509.16,134.98c-3.77,0-6.84,8.47-6.84,18.88
			c0,10.41,3.07,18.88,6.84,18.88c3.77,0,6.84-8.47,6.84-18.88S512.93,134.98,509.16,134.98L509.16,134.98z M514.89,153.87
			c0,8.71-2.57,15.73-5.7,15.73c-3.15,0-5.7-7.1-5.7-15.73c0-8.72,2.57-15.74,5.7-15.74C512.32,138.05,514.89,145.15,514.89,153.87
			L514.89,153.87z"/>
		<path class="st0" d="M511.59,161.53l-1.69-6.86c0.96-0.97,1.46-2.9,1.46-5.65c0-4.12-1.26-5.57-2.45-5.57
			c-0.32,0-0.64,0.08-0.93,0.24c-0.3,0.09-0.6,0.15-0.91,0.16c-0.41,0-0.73-0.16-1.08-0.4l-0.18-0.08v2.66l0.99,0.32v15.17h-0.99
			v2.75h3.18v-2.75h-1.14v-6.37h0.94l2.13,8.88l0.06,0.16h1.55v-2.75h-0.94L511.59,161.53z M510.27,149.26
			c0,0.97-0.15,1.78-0.41,2.34c-0.32,0.65-0.82,0.97-1.46,0.97h-0.55v-6.21c0.41-0.08,0.76-0.16,1.08-0.16
			C509.54,146.2,510.27,146.76,510.27,149.26L510.27,149.26z"/>
	</g>
	<path class="st1" d="M154.5,426.78c35.34-97.63,35.34-255.92,0-353.55c-35.34-97.63-92.65-97.63-127.99,0
		c-35.34,97.63-35.34,255.92,0,353.55S119.15,524.41,154.5,426.78z"/>
	<path class="st2" d="M121.47,329.79h9.82v21.06H116.3L91.47,248.04H78.24v81.75h12.94v21.06H58.61v-21.06H69.8V148.62l-11.19-3.79
		v-19.93c4.24,2.66,7.92,4.52,12.53,4.52c6.95,0,14.05-4.52,21-4.52c13.5,0,26.03,16.95,26.03,58.35c0,32.04-6.95,52.37-17.73,61.01
		L121.47,329.79z M78.24,227.7l7.1,0.4c17.32,0.72,23.98-17.67,23.98-42.21c0-28.65-7.51-39.95-17.03-39.95
		c-4.5,0-9.14,1.13-14.05,2.66V227.7z"/>
</g>
</svg>
