<?xml version="1.0" encoding="utf-8"?>
<!-- Generator: Adobe Illustrator 26.0.1, SVG Export Plug-In . SVG Version: 6.00 Build 0)  -->
<svg version="1.1" id="Layer_1" xmlns="http://www.w3.org/2000/svg" xmlns:xlink="http://www.w3.org/1999/xlink" x="0px" y="0px"
	 viewBox="0 0 516 500" style="enable-background:new 0 0 516 500;" xml:space="preserve">
<style type="text/css">
	.st0{fill-rule:evenodd;clip-rule:evenodd;fill:#FFFFFF;}
	.st1{fill-rule:evenodd;clip-rule:evenodd;fill:#00678F;}
	.st2{fill-rule:evenodd;clip-rule:evenodd;fill:#E38D1A;}
</style>
<g>
	<polygon class="st0" points="0.69,1.75 513.38,1.75 513.38,498.54 0.69,498.54 0.69,1.75 	"/>
	<path class="st1" d="M23.31,332.22h15.55v-59.34l23.97,51.75c2.85,6.21,6.65,8.39,14.24,8.39c7.6,0,11.39-2.19,14.24-8.39
		l23.97-51.75v59.34h15.43V273c0-5.75-2.37-8.51-7.24-10c-11.75-3.56-19.7-0.46-23.26,7.24l-23.5,50.94l-22.79-50.94
		c-3.44-7.7-11.51-10.81-23.26-7.24c-4.98,1.49-7.36,4.25-7.36,10V332.22L23.31,332.22z"/>
	<path class="st1" d="M143.64,283.93h15.43v32.66c-0.12,1.84,0.59,5.98,9.14,6.09c4.27,0.11,33.35,0,33.58,0v-38.87h15.55
		c0.12,0,0,53.01,0,53.24c0.12,13.11-16.73,15.87-24.45,16.1H144v-10.12c0,0,48.78,0.11,48.89,0c9.97-0.92,8.78-5.75,8.78-7.36
		v-3.91H168.8c-15.31-0.23-25.04-6.67-25.16-14.14C143.64,316.93,144,284.27,143.64,283.93L143.64,283.93z"/>
	<path class="st1" d="M477,246.32c-9.49-0.23-16.73,0.57-23.02,3.22c-1.78,0.69-4.51,0.69-4.87,2.87c0.95,0.92,1.19,2.41,1.9,3.68
		c1.54,2.3,4.03,5.4,6.29,7.01c2.37,1.84,4.87,3.68,7.48,5.29c4.75,2.76,9.97,4.25,14.36,7.01c2.73,1.61,5.34,3.68,7.95,5.52
		c1.19,0.92,2.14,2.3,3.68,2.87c0,0,0-0.11,0-0.23c-0.83-1.04-1.07-2.53-1.78-3.68c-1.19-1.15-2.37-2.3-3.56-3.45
		c-3.44-4.37-7.83-8.28-12.46-11.5c-3.68-2.53-11.99-6.09-13.53-10.23c-0.12-0.11-0.24-0.11-0.24-0.23c2.61-0.34,5.7-1.26,8.07-1.84
		c4.03-1.04,7.71-0.81,11.87-1.84c1.9-0.57,3.8-1.03,5.7-1.61c0-0.34,0-0.69,0-1.04c-2.14-2.07-3.56-4.94-5.93-6.78
		c-6.05-5.06-12.7-10-19.46-14.14c-3.8-2.41-8.43-3.91-12.46-5.86c-1.31-0.57-3.68-0.92-4.63-2.07c-2.14-2.53-3.2-5.87-4.87-8.85
		c-3.44-6.44-6.76-13.34-9.73-20.01c-2.02-4.48-3.44-8.97-5.93-13.11c-12.34-19.55-25.51-31.39-46.05-43.01
		c-4.39-2.42-9.61-3.45-15.19-4.72c-2.97-0.23-5.93-0.34-8.9-0.57c-1.78-0.69-3.68-2.87-5.46-3.91
		c-6.76-4.14-24.21-13.22-29.19-1.27c-3.2,7.47,4.75,14.83,7.59,18.63c2.02,2.64,4.51,5.63,5.93,8.62c0.95,1.96,1.07,3.91,1.9,5.98
		c2.02,5.17,3.68,10.81,6.17,15.52c1.31,2.41,2.73,4.94,4.39,7.13c0.95,1.26,2.73,1.84,2.97,3.91c-1.66,2.3-1.78,5.75-2.73,8.62
		c-4.15,12.99-2.61,28.98,3.56,38.64c1.9,2.87,6.29,9.2,12.46,6.78c5.34-2.19,4.15-8.62,5.7-14.49c0.36-1.26,0.12-2.18,0.83-3.1
		c0,0.11,0,0.23,0,0.23c1.54,3.22,3.2,6.32,4.87,9.43c3.56,5.63,9.97,11.61,15.43,15.52c2.73,2.07,4.98,5.63,8.66,6.78
		c0,0,0-0.12,0-0.23c-0.12,0-0.24,0-0.36,0c-0.71-1.04-1.78-1.49-2.61-2.3c-2.14-2.07-4.51-4.6-6.29-6.9
		c-4.87-6.44-9.26-13.57-13.29-20.93c-1.9-3.56-3.56-7.47-5.1-11.04c-0.59-1.38-0.59-3.45-1.9-4.25c-1.78,2.64-4.27,4.83-5.7,7.93
		c-2.14,4.95-2.49,11.04-3.2,17.25c-0.47,0.23-0.36,0.11-0.59,0.34c-3.8-0.92-5.1-4.72-6.53-7.93c-3.44-8.16-4.15-21.27-1.07-30.7
		c0.83-2.41,4.51-10,2.97-12.3c-0.71-2.18-2.97-3.56-4.27-5.29c-1.66-2.07-3.2-4.83-4.39-7.24c-2.85-6.44-4.15-13.57-7.24-20.01
		c-1.54-3.11-3.92-6.21-5.93-8.85c-2.25-3.1-4.75-5.29-6.53-8.97c-0.59-1.27-1.42-3.34-0.59-4.72c0.36-0.92,0.71-1.26,1.66-1.61
		c1.54-1.15,5.93,0.46,7.59,1.03c4.27,1.84,7.95,3.45,11.63,5.87c1.78,1.15,3.56,3.33,5.7,3.91c0.83,0,1.66,0,2.37,0
		c3.8,0.81,8.07,0.23,11.63,1.27c6.29,1.84,11.99,4.71,17.09,7.93c15.67,9.54,28.36,23.11,37.14,39.33c1.42,2.64,2.02,5.06,3.2,7.82
		c2.49,5.63,5.7,11.38,8.19,16.79c2.37,5.52,4.87,11.04,8.31,15.52c1.9,2.42,9.02,3.68,12.22,4.95c2.25,0.92,5.93,1.95,8.07,3.22
		c4.15,2.3,8.07,5.17,11.99,7.82C470.83,241.03,476.76,243.91,477,246.32L477,246.32z"/>
	<path class="st1" d="M355.95,146.39c-1.9,0-3.32,0.23-4.87,0.58c0,0,0,0.11,0,0.23c0.12,0,0.24,0,0.36,0
		c0.95,1.84,2.61,3.1,3.8,4.71c0.83,1.84,1.78,3.68,2.61,5.52c0.12-0.11,0.24-0.23,0.36-0.34c1.66-1.04,2.37-2.87,2.37-5.75
		c-0.59-0.69-0.71-1.49-1.31-2.3C358.44,147.89,357.02,147.31,355.95,146.39L355.95,146.39z"/>
	<path class="st2" d="M229.33,332.22h44.5c5.22,0,10.32-1.04,14.36-2.87c6.65-2.99,9.97-7.01,9.97-12.3v-11.04
		c0-4.25-3.8-8.39-11.04-11.04c-3.92-1.49-8.66-2.18-13.29-2.18h-18.75c-6.29,0-9.26-1.84-9.97-5.87c-0.12-0.46-0.12-0.92-0.12-1.38
		v-6.78c0-0.46,0-0.81,0.12-1.27c0.71-3.1,2.37-4.02,7.83-4.48c0.47,0,1.07-0.12,1.54-0.12h44.26v-10H255.2
		c-6.29,0-9.49,0.46-12.46,1.26c-9.26,2.87-13.29,7.24-13.29,14.95v8.74c0,6.78,7.95,12.53,21.12,13.91c1.54,0,2.97,0.11,4.51,0.11
		h16.02c0.59,0,1.19,0,1.66,0.12c4.98,0.46,7,1.26,8.54,2.99c0.83,0.92,1.19,1.72,1.19,2.76v8.74c0,1.04-0.71,2.42-2.25,3.57
		c-1.31,1.15-3.56,1.84-6.53,2.07c-0.59,0-1.07,0.11-1.66,0.11h-42.72V332.22L229.33,332.22z"/>
	<path class="st2" d="M394.76,314.74c0,10.35,7.83,16.1,23.85,17.25c1.42,0.12,2.97,0.23,4.39,0.23h40.35v-10h-40.59
		c-9.14,0-12.58-2.18-12.58-7.47v-51.86h-15.43V314.74L394.76,314.74z"/>
	<path class="st2" d="M308.01,315.32v-35.65c0-9.08,6.53-14.6,19.58-16.33c1.31-0.23,2.85-0.23,4.15-0.23h29.43
		c1.42,0,2.73,0,4.27,0.23c12.94,1.72,19.58,7.24,19.58,16.33v35.65c0,7.36-2.85,11.27-9.26,13.8l15.31,13.34h-18.04l-12.34-10.69
		l-12.46,0.69h-16.5c-2.85,0-5.82-0.34-9.14-1.27C312.75,328.66,308.01,323.6,308.01,315.32L308.01,315.32z M324.74,314.4
		c0,0.57,0.12,1.04,0.24,1.61c0.95,4.14,4.98,6.44,11.04,6.44h14.12l-12.94-11.27h18.04l11.27,9.77c2.02-1.04,3.44-2.64,3.92-4.72
		c0.12-0.57,0.12-1.03,0.12-1.49v-34.27c0-0.34,0-0.8-0.12-1.27c-0.95-3.91-4.98-6.09-10.92-6.09h-23.5
		c-6.88,0-11.27,2.87-11.27,7.36V314.4L324.74,314.4z"/>
	<path class="st2" d="M470.47,332.22h2.25v-8.28h3.09v-1.73h-8.43v1.73h3.09V332.22L470.47,332.22z M487.8,332.22h2.02v-10h-3.09
		l-2.73,6.9l-2.73-6.9h-3.2v10h2.14v-7.59l0,0l2.97,7.59h1.54l2.97-7.59h0.12V332.22L487.8,332.22z"/>
	<path class="st1" d="M32.69,239.19l-8.66-38.87h4.39l4.98,25.53c0.59,2.64,1.07,5.29,1.42,7.93l1.54-7.24l6.29-26.22h5.1
		l4.75,19.66c1.19,4.83,2.02,9.43,2.61,13.8c0.36-2.53,0.95-5.4,1.66-8.51l5.1-24.95h4.51l-9.14,38.87H53.1l-7-29.55l-1.07-4.6
		c-0.24,1.72-0.59,3.22-0.95,4.6l-7,29.55H32.69L32.69,239.19z"/>
	<path class="st1" d="M69.12,220.33c0-6.67,1.54-11.73,4.51-15.29c2.97-3.56,6.76-5.29,11.27-5.29c2.85,0,5.58,0.69,7.95,2.3
		c2.37,1.61,4.27,3.91,5.7,6.9c1.31,3.1,2.02,6.67,2.02,10.92c0,5.75-1.31,10.35-4.04,14.03c-2.97,4.02-6.88,5.98-11.63,5.98
		c-4.87,0-8.78-2.07-11.75-6.09C70.42,229.99,69.12,225.51,69.12,220.33L69.12,220.33z M73.63,220.33c0,4.83,1.07,8.51,3.2,11.15
		c2.25,2.64,4.87,4.02,7.95,4.02c3.2,0,5.93-1.38,8.07-4.02c2.14-2.64,3.2-6.55,3.2-11.73c0-3.45-0.47-6.32-1.66-8.97
		c-0.83-2.07-2.14-3.68-3.8-4.83c-1.78-1.26-3.68-1.84-5.7-1.84c-3.32,0-6.05,1.26-8.07,3.91C74.7,210.68,73.63,214.81,73.63,220.33
		L73.63,220.33z"/>
	<path class="st1" d="M106.02,239.19v-38.87h14.6c2.97,0,5.22,0.34,6.65,1.15c1.54,0.69,2.73,1.84,3.56,3.56
		c0.95,1.72,1.42,3.68,1.42,5.86c0,2.99-0.71,5.29-2.37,7.13c-1.54,1.84-3.8,2.99-6.88,3.57c1.31,0.69,2.14,1.38,2.85,2.07
		c1.31,1.49,2.37,3.1,3.44,4.94l5.7,10.58h-5.46l-4.39-8.05c-1.78-3.1-2.97-5.29-3.92-6.32c-0.83-1.15-1.66-1.96-2.49-2.3
		c-0.83-0.34-1.9-0.58-3.32-0.58h-4.98v17.25H106.02L106.02,239.19z M110.42,217.46h9.26c2.02,0,3.56-0.23,4.63-0.69
		c1.07-0.46,1.9-1.27,2.61-2.19c0.59-1.03,0.83-2.3,0.83-3.68c0-1.95-0.59-3.45-1.78-4.6c-1.19-1.15-2.85-1.72-5.22-1.72h-10.32
		V217.46L110.42,217.46z"/>
	<polygon class="st1" points="139.02,239.19 139.02,200.33 143.41,200.33 143.41,219.64 159.67,200.33 165.6,200.33 151.71,216.08 
		166.19,239.19 160.38,239.19 148.75,219.64 143.41,225.74 143.41,239.19 139.02,239.19 	"/>
	<path class="st1" d="M168.21,226.66l4.15-0.34c0.24,2.07,0.71,3.79,1.54,4.94c0.71,1.27,1.9,2.19,3.32,2.87
		c1.42,0.81,3.09,1.15,4.87,1.15c2.61,0,4.51-0.69,5.93-1.84c1.42-1.26,2.14-2.87,2.14-4.83c0-1.15-0.24-2.07-0.71-2.99
		c-0.47-0.81-1.31-1.49-2.37-2.07c-1.07-0.57-3.32-1.38-6.76-2.3c-3.09-0.92-5.34-1.84-6.65-2.76c-1.31-0.81-2.37-1.95-3.09-3.33
		c-0.71-1.38-1.07-2.99-1.07-4.71c0-3.22,1.07-5.75,3.09-7.7c2.14-2.07,4.98-2.99,8.54-2.99c2.37,0,4.51,0.46,6.41,1.38
		c1.78,0.92,3.2,2.3,4.27,4.02c0.95,1.72,1.54,3.8,1.54,6.21l-4.15,0.34c-0.12-2.53-0.95-4.37-2.25-5.63
		c-1.42-1.27-3.2-1.84-5.7-1.84c-2.49,0-4.39,0.57-5.58,1.61c-1.31,1.03-2.02,2.41-2.02,4.14c0,1.61,0.48,2.76,1.42,3.68
		c0.95,0.81,3.09,1.72,6.41,2.64c3.32,0.81,5.58,1.61,6.88,2.19c2.02,1.04,3.56,2.3,4.51,3.91c1.07,1.61,1.54,3.56,1.54,5.75
		c0,2.3-0.59,4.25-1.66,6.09c-1.07,1.84-2.49,3.22-4.39,4.14c-1.78,1.04-4.04,1.49-6.65,1.49c-4.03,0-7.36-1.15-9.73-3.56
		C169.63,233.9,168.33,230.68,168.21,226.66L168.21,226.66z"/>
	<path class="st1" d="M220.19,239.19l-8.66-38.87h4.39l4.98,25.53c0.59,2.64,1.07,5.29,1.42,7.93l1.54-7.24l6.29-26.22h5.1
		l4.75,19.66c1.19,4.83,2.02,9.43,2.61,13.8c0.36-2.53,0.95-5.4,1.54-8.51l5.22-24.95h4.51l-9.14,38.87h-4.15l-7-29.55l-1.07-4.6
		c-0.24,1.72-0.59,3.22-0.95,4.6l-7,29.55H220.19L220.19,239.19z"/>
	<polygon class="st1" points="258.64,239.19 258.64,200.33 263.03,200.33 263.03,239.19 258.64,239.19 	"/>
	<polygon class="st1" points="279.05,239.19 279.05,204.93 268.25,204.93 268.25,200.33 294.24,200.33 294.24,204.93 283.32,204.93 
		283.32,239.19 279.05,239.19 	"/>
	<polygon class="st1" points="298.51,239.19 298.51,200.33 302.9,200.33 302.9,216.31 319.99,216.31 319.99,200.33 324.38,200.33 
		324.38,239.19 319.99,239.19 319.99,220.91 302.9,220.91 302.9,239.19 298.51,239.19 	"/>
</g>
</svg>
