<?xml version="1.0" encoding="utf-8"?>
<!-- Generator: Adobe Illustrator 26.0.1, SVG Export Plug-In . SVG Version: 6.00 Build 0)  -->
<svg version="1.1" id="Layer_1" xmlns="http://www.w3.org/2000/svg" xmlns:xlink="http://www.w3.org/1999/xlink" x="0px" y="0px"
	 viewBox="0 0 516 500" style="enable-background:new 0 0 516 500;" xml:space="preserve">
<style type="text/css">
	.st0{fill:#529E45;}
</style>
<g>
	<g>
		<path class="st0" d="M258,500c-8.01,0-15.49-1.84-22.43-5.05l-71.04-36.29c-10.68-5.05-5.34-6.89-2.14-7.81
			c14.42-4.13,17.09-5.05,32.05-12.4c1.6-0.92,3.74-0.46,5.34,0.46l54.48,28.02c2.14,0.92,4.81,0.92,6.41,0L473.8,360.82
			c2.14-0.92,3.2-2.76,3.2-5.05V144.01c0-2.3-1.07-4.13-3.2-5.05L260.67,33.3c-2.14-0.92-4.81-0.92-6.41,0L41.13,138.95
			c-2.14,0.92-3.2,3.22-3.2,5.05v211.76c0,1.84,1.07,4.13,3.2,5.05l58.22,28.94c31.52,13.78,51.28-2.3,51.28-18.37v-209
			c0-2.76,2.67-5.51,6.41-5.51h27.24c3.2,0,6.41,2.3,6.41,5.51v209c0,36.29-22.97,57.42-63.03,57.42c-12.29,0-21.9,0-49.14-11.48
			l-56.09-27.56C8.55,382.87,0,370,0,356.22V144.46c0-13.78,8.55-26.64,22.43-33.53L235.57,4.82c13.35-6.43,31.52-6.43,44.87,0
			l213.13,106.11c13.89,6.89,22.43,19.75,22.43,33.53v211.76c0,13.78-8.55,26.64-22.43,33.53L280.43,495.87
			C273.49,498.62,265.48,500,258,500L258,500z M323.7,354.39c-93.48,0-112.71-36.75-112.71-67.98c0-2.76,2.67-5.51,6.41-5.51h27.78
			c3.2,0,5.88,1.84,5.88,4.59c4.27,24.35,16.56,36.29,73.18,36.29c44.87,0,64.1-8.73,64.1-29.4c0-11.94-5.34-20.67-75.32-26.64
			c-58.22-5.05-94.55-16.08-94.55-56.04c0-37.21,36.32-59.26,97.22-59.26c68.37,0,102.02,20.21,106.3,64.31
			c0,1.38-0.53,2.76-1.6,4.13c-1.07,0.92-2.67,1.84-4.27,1.84h-27.78c-2.67,0-5.34-1.84-5.88-4.13
			c-6.41-25.26-22.97-33.53-66.77-33.53c-49.14,0-55.02,14.7-55.02,25.72c0,13.32,6.94,17.46,73.18,24.8
			c65.7,7.35,96.68,17.91,96.68,57.42C430,331.42,391.54,354.39,323.7,354.39L323.7,354.39z"/>
	</g>
</g>
</svg>
