<?xml version="1.0" encoding="utf-8"?>
<!-- Generator: Adobe Illustrator 26.0.1, SVG Export Plug-In . SVG Version: 6.00 Build 0)  -->
<svg version="1.1" id="Layer_1" xmlns="http://www.w3.org/2000/svg" xmlns:xlink="http://www.w3.org/1999/xlink" x="0px" y="0px"
	 viewBox="0 0 516 500" style="enable-background:new 0 0 516 500;" xml:space="preserve">
<style type="text/css">
	.st0{fill:#666666;}
	.st1{fill:url(#SVGID_1_);}
	.st2{fill:url(#SVGID_00000003077779545323235630000010357900580702354877_);}
	.st3{opacity:0.444;fill:url(#SVGID_00000062883234824938340300000001855724111763260829_);enable-background:new    ;}
</style>
<g>
	<path class="st0" d="M56.34,427.46c0-19.82-6.52-29.71-19.6-30.08c-5.31-0.34-10.2,0.71-15.11,2.13c-4.09,1.05-6.52,2.47-7.76,3.55
		v46.7c8.16,4.6,15.5,6.73,22.05,6.36C49.39,455.04,56.34,445.5,56.34,427.46z M72.26,428.17c0,9.91-2.46,18.04-8.16,24.77
		c-6.13,7.44-14.29,11.33-25.3,11.33c-8.16,0.34-16.32-2.13-24.91-6.73V500L0,495.74v-94.47c2.46-2.47,5.31-4.6,8.58-6.36
		c8.16-4.24,18.38-6.36,29.79-6.36c10.62,0,19.18,3.89,24.91,11.33C69.39,408,72.26,416.84,72.26,428.17L72.26,428.17z
		 M156.76,456.12c0,13.44-1.64,22.64-4.49,27.61c-3.27,4.94-8.98,9.2-17.56,12.38c-7.34,2.47-14.69,3.89-22.87,3.89l-2.46-7.44
		c8.58-1.05,14.29-2.13,17.56-2.84c6.52-2.13,11.44-4.94,13.87-9.2c2.03-3.18,2.85-9.55,2.85-18.75v-3.18
		c-9.38,3.89-19.6,5.65-29.79,5.65c-6.95,0-13.07-1.76-17.96-5.65c-5.71-3.89-8.58-9.2-8.58-15.57v-49.88l13.87-4.24v50.25
		c0,5.31,2.03,9.55,6.13,12.38c4.09,2.84,8.98,4.24,15.5,4.24c6.52,0,13.07-2.13,20.42-6.36v-58.76h13.87L156.76,456.12z
		 M210.64,463.9h-4.49c-7.76,0-13.87-1.76-18.38-4.94c-4.49-3.18-6.52-7.78-6.52-13.44v-47.41h-9.38v-7.46h9.38v-20.17l13.87-4.24
		v24.4h15.5v7.44h-15.5v46.7c0,4.6,1.22,7.78,4.09,9.55c2.46,1.42,6.13,2.47,11.44,2.84L210.64,463.9z M294.74,462.83h-13.87v-46.35
		c0-4.6-1.22-8.84-3.67-12.02c-2.85-3.89-6.95-5.65-12.26-5.65c-6.52,0-14.29,2.84-23.67,8.84v55.56h-13.87V352.45l13.87-3.89v50.25
		c8.98-5.65,18.38-8.49,28.98-8.49c7.34,0,13.07,2.13,17.96,6.36c4.49,4.24,6.95,9.55,6.95,15.93L294.74,462.83z M368.22,425.33
		c0-7.44-1.64-13.8-4.89-18.75c-4.09-6.02-9.8-9.2-18.38-9.55c-15.11,0.71-22.87,10.26-22.87,28.29c0,8.49,1.64,15.22,4.89,20.88
		c4.09,7.07,10.2,10.62,18.38,10.62C360.46,456.46,368.22,446.21,368.22,425.33z M383.33,425.33c0,10.62-3.27,19.82-9.38,26.9
		c-6.95,7.78-16.75,12.02-28.58,12.02c-12.26,0-21.63-3.89-28.58-12.02c-6.13-7.07-9.38-15.93-9.38-26.9
		c0-10.26,3.27-18.75,10.2-25.48c7.34-7.44,16.32-10.96,27.76-10.96s20.81,3.55,28.16,10.96
		C380.05,406.93,383.33,415.42,383.33,425.33z M462.94,462.83h-13.87V414c0-5.31-2.03-9.55-5.71-12.38
		c-3.67-2.84-8.58-4.6-15.11-4.24c-6.52,0-13.07,2.13-18.78,5.65v60.5h-13.87v-61.92c7.76-4.94,15.11-8.49,22.05-9.91
		c6.52-1.42,11.83-2.13,16.75-2.13c3.27,0,6.52,0.34,9.38,0.71c5.31,1.05,9.8,3.18,13.07,6.02c3.67,3.18,5.71,7.44,5.71,12.02
		L462.94,462.83z"/>
	
		<linearGradient id="SVGID_1_" gradientUnits="userSpaceOnUse" x1="12910.1367" y1="27455.8359" x2="12928.7324" y2="27471.8359" gradientTransform="matrix(9.2563 0 0 9.3468 -119437.5781 -256629.4375)">
		<stop  offset="0" style="stop-color:#5EA0D4"/>
		<stop  offset="1" style="stop-color:#326B9A"/>
	</linearGradient>
	<path class="st1" d="M225.35,0.06c-13.07,0-25.73,1.05-36.74,2.84c-32.65,4.94-38.38,15.22-38.38,34.68v25.48h76.75v8.49H121.66
		c-22.05,0-41.63,11.67-47.75,33.6c-6.95,25.48-7.34,41.04,0,67.57c5.31,19.82,18.38,33.6,40.83,33.6h26.54v-30.42
		c0-21.93,22.05-41.39,47.75-41.39h76.33c21.24,0,38.38-15.22,38.38-33.97V37.22c0-18.04-17.56-31.5-38.38-34.68
		C251.87,0.77,238.4-0.28,225.35,0.06z M183.7,20.23c7.76,0,14.29,5.65,14.29,12.73s-6.52,12.73-14.29,12.73
		s-14.29-5.65-14.29-12.73S175.54,20.23,183.7,20.23z"/>
	
		<linearGradient id="SVGID_00000135662689103860875980000015192033158097865390_" gradientUnits="userSpaceOnUse" x1="12935.6152" y1="27479.9062" x2="12929.3896" y2="27471.0977" gradientTransform="matrix(9.2563 0 0 9.3468 -119437.5781 -256629.4375)">
		<stop  offset="0" style="stop-color:#FFD540"/>
		<stop  offset="1" style="stop-color:#FEE977"/>
	</linearGradient>
	<path style="fill:url(#SVGID_00000135662689103860875980000015192033158097865390_);" d="M313.12,70.82v29.37
		c0,23-22.45,42.1-48.18,42.1h-76.33c-20.81,0-38.38,15.57-38.38,33.97v63.34c0,18.04,17.96,28.66,38.38,33.97
		c24.09,6.36,47.36,7.44,76.75,0c19.18-4.94,38.38-14.51,38.38-33.97v-25.48h-76.78v-8.49H342.1c22.05,0,30.61-13.44,38.38-33.6
		c8.16-20.88,7.76-40.68,0-67.57c-5.31-19.11-15.93-33.6-38.38-33.6L313.12,70.82z M269.83,231.1c7.76,0,14.29,5.65,14.29,12.73
		c0,7.07-6.52,12.73-14.29,12.73s-14.29-5.65-14.29-12.73C255.54,236.76,262.09,231.1,269.83,231.1z"/>
	<path class="st0" d="M489.46,380.05h2.46v-13.09h5.71v-1.76h-13.87v1.76h5.71V380.05z M500.07,380.05h2.03v-12.02l4.49,12.02h2.46
		l4.49-12.02v12.02H516V365.2h-2.85l-5.31,12.73l-4.49-12.73h-3.27V380.05z"/>
	
		<radialGradient id="SVGID_00000087378392990128968240000017348083044048139708_" cx="-82956.5391" cy="14382.7139" r="20.3303" gradientTransform="matrix(0 -0.8487 4.3056 0 -61698.0508 -70095.7422)" gradientUnits="userSpaceOnUse">
		<stop  offset="0" style="stop-color:#B9B9B9;stop-opacity:0.498"/>
		<stop  offset="1" style="stop-color:#808181;stop-opacity:0"/>
	</radialGradient>
	<path style="opacity:0.444;fill:url(#SVGID_00000087378392990128968240000017348083044048139708_);enable-background:new    ;" d="
		M330.66,316.37c0,9.55-46.12,17.33-102.88,17.33s-102.88-7.78-102.88-17.33s46.12-17.33,102.88-17.33S330.66,306.8,330.66,316.37
		L330.66,316.37z"/>
</g>
</svg>
