<?xml version="1.0" encoding="utf-8"?>
<!-- Generator: Adobe Illustrator 26.0.1, SVG Export Plug-In . SVG Version: 6.00 Build 0)  -->
<svg version="1.1" id="Layer_1" xmlns="http://www.w3.org/2000/svg" xmlns:xlink="http://www.w3.org/1999/xlink" x="0px" y="0px"
	 viewBox="0 0 516 500" style="enable-background:new 0 0 516 500;" xml:space="preserve">
<style type="text/css">
	.st0{clip-path:url(#SVGID_00000046339116504421296820000009847570463712220060_);fill:#E8762D;}
	.st1{clip-path:url(#SVGID_00000046339116504421296820000009847570463712220060_);fill:#C72036;}
	.st2{clip-path:url(#SVGID_00000046339116504421296820000009847570463712220060_);fill:#5B889B;}
	.st3{clip-path:url(#SVGID_00000046339116504421296820000009847570463712220060_);fill:#5C6692;}
	.st4{clip-path:url(#SVGID_00000046339116504421296820000009847570463712220060_);fill:#EB9129;}
	
		.st5{clip-path:url(#SVGID_00000046339116504421296820000009847570463712220060_);fill-rule:evenodd;clip-rule:evenodd;fill:#1F457E;}
	.st6{clip-path:url(#SVGID_00000046339116504421296820000009847570463712220060_);fill:#7199A6;}
	.st7{clip-path:url(#SVGID_00000046339116504421296820000009847570463712220060_);}
	
		.st8{clip-path:url(#SVGID_00000162322211481536591760000007442257446488385719_);fill-rule:evenodd;clip-rule:evenodd;fill:#5B889B;}
	
		.st9{clip-path:url(#SVGID_00000162322211481536591760000007442257446488385719_);fill-rule:evenodd;clip-rule:evenodd;fill:#1F457E;}
	.st10{clip-path:url(#SVGID_00000162322211481536591760000007442257446488385719_);fill:#1F457E;}
</style>
<g>
	<g>
		<defs>
			<rect id="SVGID_1_" y="0" width="516" height="500"/>
		</defs>
		<clipPath id="SVGID_00000067210705275581890890000005147755449151375788_">
			<use xlink:href="#SVGID_1_"  style="overflow:visible;"/>
		</clipPath>
		<polygon style="clip-path:url(#SVGID_00000067210705275581890890000005147755449151375788_);fill:#E8762D;" points="
			119.48,244.86 109.59,244.86 109.59,229.22 105.69,229.22 105.69,244.86 95.79,244.86 95.79,250.42 105.69,250.42 105.69,266.05 
			109.59,266.05 109.59,250.42 119.48,250.42 		"/>
		<polygon style="clip-path:url(#SVGID_00000067210705275581890890000005147755449151375788_);fill:#C72036;" points="99.58,270.39 
			90.71,270.39 90.71,256.39 87.36,256.39 87.36,270.39 78.49,270.39 78.49,274.66 87.36,274.66 87.36,288.67 90.71,288.67 
			90.71,274.66 99.58,274.66 		"/>
		<polygon style="clip-path:url(#SVGID_00000067210705275581890890000005147755449151375788_);fill:#5B889B;" points="
			136.79,220.31 127.92,220.31 127.92,206.24 124.56,206.24 124.56,220.31 115.7,220.31 115.7,224.57 124.56,224.57 124.56,238.51 
			127.92,238.51 127.92,224.57 136.79,224.57 		"/>
		<polygon style="clip-path:url(#SVGID_00000067210705275581890890000005147755449151375788_);fill:#5C6692;" points="
			115.15,285.93 109.13,285.93 109.13,276.17 106.26,276.17 106.26,285.93 100.25,285.93 100.25,289.7 106.26,289.7 106.26,299.47 
			109.13,299.47 109.13,289.7 115.15,289.7 		"/>
		<polygon style="clip-path:url(#SVGID_00000067210705275581890890000005147755449151375788_);fill:#EB9129;" points="99.58,220.3 
			90.61,220.3 90.61,206.24 87.46,206.24 87.46,220.3 78.49,220.3 78.49,224.45 87.46,224.45 87.46,238.51 90.61,238.51 
			90.61,224.45 99.58,224.45 		"/>
		<polygon style="clip-path:url(#SVGID_00000067210705275581890890000005147755449151375788_);fill:#5C6692;" points="143.6,245.75 
			137.59,245.75 137.59,235.99 134.72,235.99 134.72,245.75 128.7,245.75 128.7,249.52 134.72,249.52 134.72,259.29 137.59,259.29 
			137.59,249.52 143.6,249.52 		"/>
		
			<polygon style="clip-path:url(#SVGID_00000067210705275581890890000005147755449151375788_);fill-rule:evenodd;clip-rule:evenodd;fill:#1F457E;" points="
			136.79,270.39 127.92,270.39 127.92,256.39 124.56,256.39 124.56,270.39 115.7,270.39 115.7,274.66 124.56,274.66 124.56,288.67 
			127.92,288.67 127.92,274.66 136.79,274.66 		"/>
		<polygon style="clip-path:url(#SVGID_00000067210705275581890890000005147755449151375788_);fill:#7199A6;" points="
			106.63,196.25 106.63,205.83 100.67,205.83 100.67,208.73 106.63,208.73 106.63,218.32 108.77,218.32 108.77,208.73 
			114.72,208.73 114.72,205.83 108.77,205.83 108.77,196.25 		"/>
		<polygon style="clip-path:url(#SVGID_00000067210705275581890890000005147755449151375788_);fill:#7199A6;" points="85.66,246.13 
			79.68,246.13 79.68,236.73 77.58,236.73 77.58,246.13 71.61,246.13 71.61,249.15 77.58,249.1 77.58,258.55 79.68,258.55 
			79.68,249.08 85.66,249.03 		"/>
		<g style="clip-path:url(#SVGID_00000067210705275581890890000005147755449151375788_);">
			<defs>
				<rect id="SVGID_00000156567326347394347970000000731360587366750369_" y="0" width="516" height="500"/>
			</defs>
			<clipPath id="SVGID_00000027586687723512884310000017450778871867646618_">
				<use xlink:href="#SVGID_00000156567326347394347970000000731360587366750369_"  style="overflow:visible;"/>
			</clipPath>
			
				<path style="clip-path:url(#SVGID_00000027586687723512884310000017450778871867646618_);fill-rule:evenodd;clip-rule:evenodd;fill:#5B889B;" d="
				M176.01,301.11c0.73,0.64,1.51,0.95,2.36,0.95c1.71,0,2.69-1.14,2.69-2.94c0-1.09-0.3-1.93-0.9-2.47
				c-0.51-0.45-1.08-0.72-1.69-1.06c-0.62-0.33-0.92-0.69-0.92-1.1c0-0.5,0.34-0.8,1-0.8c0.63,0,1.35,0.35,2.22,0.99v-2.03
				c-0.78-0.55-1.56-0.81-2.31-0.81c-1.56,0-2.57,1.2-2.57,2.85c0,1.79,0.84,2.62,2.55,3.49c0.6,0.3,0.91,0.49,0.91,1.08
				c0,0.58-0.35,0.88-1.02,0.88c-0.77,0-1.46-0.48-2.32-1.24V301.11z"/>
			
				<path style="clip-path:url(#SVGID_00000027586687723512884310000017450778871867646618_);fill-rule:evenodd;clip-rule:evenodd;fill:#5B889B;" d="
				M209.43,296.95c0,1.46,0.37,2.73,1.07,3.69c0.69,0.94,1.55,1.42,2.63,1.42c1.08,0,1.95-0.47,2.64-1.42
				c0.7-0.96,1.07-2.22,1.07-3.69c0-1.48-0.37-2.73-1.07-3.71c-0.69-0.94-1.56-1.4-2.64-1.4c-1.07,0-1.94,0.46-2.63,1.4
				C209.8,294.22,209.43,295.47,209.43,296.95 M211.18,296.95c0-1.78,0.81-3.04,1.94-3.04c1.13,0,1.94,1.26,1.94,3.04
				c0,1.78-0.82,3.02-1.94,3.02C212,299.97,211.18,298.73,211.18,296.95"/>
			
				<polygon style="clip-path:url(#SVGID_00000027586687723512884310000017450778871867646618_);fill-rule:evenodd;clip-rule:evenodd;fill:#5B889B;" points="
				247.02,301.88 248.72,301.88 248.72,297.82 251.25,297.82 251.25,295.97 248.72,295.97 248.72,293.82 251.42,293.82 251.42,292 
				247.02,292 			"/>
			
				<polygon style="clip-path:url(#SVGID_00000027586687723512884310000017450778871867646618_);fill-rule:evenodd;clip-rule:evenodd;fill:#5B889B;" points="
				283.21,301.88 285,301.88 285,293.84 287.25,293.84 287.25,292 280.96,292 280.96,293.84 283.21,293.84 			"/>
			
				<polygon style="clip-path:url(#SVGID_00000027586687723512884310000017450778871867646618_);fill-rule:evenodd;clip-rule:evenodd;fill:#5B889B;" points="
				317.46,301.97 318.15,301.97 319.7,295.79 321.23,301.97 321.94,301.97 324.7,292 322.91,292 321.6,297.4 320.27,292 319.13,292 
				317.8,297.37 316.47,292 314.7,292 			"/>
			
				<path style="clip-path:url(#SVGID_00000027586687723512884310000017450778871867646618_);fill-rule:evenodd;clip-rule:evenodd;fill:#5B889B;" d="
				M350.42,301.88h1.82l0.55-1.92h2.93l0.49,1.92h1.8l-2.65-9.89h-1.96L350.42,301.88z M353.27,298.27l1.06-3.77l0.96,3.77H353.27z"
				/>
			
				<path style="clip-path:url(#SVGID_00000027586687723512884310000017450778871867646618_);fill-rule:evenodd;clip-rule:evenodd;fill:#5B889B;" d="
				M385.61,301.88h1.7v-4.02c0.07,0,0.13-0.02,0.2-0.02c0.67,0,0.97,0.31,1.23,1.19l0.87,2.85h1.92l-1.09-3.39
				c-0.2-0.64-0.47-1.05-0.81-1.24c0.82-0.53,1.19-1.3,1.19-2.39c0-1.98-0.89-2.86-2.71-2.86h-2.51V301.88z M388.13,296.05h-0.82
				v-2.3h0.82c0.62,0,0.94,0.41,0.94,1.14C389.07,295.68,388.77,296.05,388.13,296.05"/>
			
				<polygon style="clip-path:url(#SVGID_00000027586687723512884310000017450778871867646618_);fill-rule:evenodd;clip-rule:evenodd;fill:#5B889B;" points="
				419.77,301.88 424.4,301.88 424.4,300.03 421.47,300.03 421.47,297.67 424.19,297.67 424.19,295.84 421.47,295.84 421.47,293.82 
				424.32,293.82 424.32,292 419.77,292 			"/>
			
				<path style="clip-path:url(#SVGID_00000027586687723512884310000017450778871867646618_);fill-rule:evenodd;clip-rule:evenodd;fill:#1F457E;" d="
				M263.15,239.59c2.34-1.34,4.43-1.74,5.76-1.74c6.65,0,11.14,6.79,11.14,17.44c0,11.05-4.72,17.5-13.04,17.5
				c-2.89,0-5.72-0.81-8.69-2.28l-0.14-48.85h4.98V239.59z M267.5,266.14c4.65,0,7.32-3.87,7.32-10.77c0-6.78-2.68-10.86-6.86-10.86
				c-1.82,0-3.55,0.91-4.81,1.75v18.65C264.68,265.74,266.12,266.14,267.5,266.14"/>
			
				<rect x="300.74" y="214.81" style="clip-path:url(#SVGID_00000027586687723512884310000017450778871867646618_);fill-rule:evenodd;clip-rule:evenodd;fill:#1F457E;" width="4.93" height="64.11"/>
			
				<path style="clip-path:url(#SVGID_00000027586687723512884310000017450778871867646618_);fill-rule:evenodd;clip-rule:evenodd;fill:#1F457E;" d="
				M332.87,251.49h11.31c-0.13-4.37-1.75-6.65-4.63-6.91C336.65,244.3,333.84,247.01,332.87,251.49 M338.45,272.93
				c-7.59-1.07-11.29-8.82-11.07-18.02c0.23-9.93,4.65-16.97,11.39-16.97c7.07,0,11.17,7.6,10.82,18.82h-17.02
				c0.41,6.21,2.97,9.16,6.48,9.55c2.92,0.33,7.04-0.63,9.28-2.67v6.83C345.38,272.55,342.31,273.47,338.45,272.93"/>
			
				<path style="clip-path:url(#SVGID_00000027586687723512884310000017450778871867646618_);fill-rule:evenodd;clip-rule:evenodd;fill:#1F457E;" d="
				M422.62,267.29c3.12,0,5.23-2.31,5.23-7.5v-21.21h4.98v22.1c0,7.39-3.95,11.89-10.21,11.89c-6.26,0-10.21-4.51-10.21-11.89v-22.1
				h4.98v21.21C417.39,264.97,419.5,267.29,422.62,267.29"/>
			
				<path style="clip-path:url(#SVGID_00000027586687723512884310000017450778871867646618_);fill-rule:evenodd;clip-rule:evenodd;fill:#1F457E;" d="
				M225.39,272.79c-8.32,0.04-13.04-6.45-13.04-17.5c0-10.65,4.5-17.44,11.14-17.44c2.24,0,4.1,0.72,5.76,2.29v-2.44h4.98
				l-0.14,32.82C231.99,271.84,228.55,272.78,225.39,272.79 M224.89,266.14c1.13-0.02,2.51-0.15,4.26-0.79l0.09-18.51
				c-1.59-1.59-3.13-2.34-4.81-2.34c-4.18,0-6.86,4.07-6.86,10.86C217.57,262.27,220.24,266.24,224.89,266.14"/>
			
				<path style="clip-path:url(#SVGID_00000027586687723512884310000017450778871867646618_);fill-rule:evenodd;clip-rule:evenodd;fill:#1F457E;" d="
				M382.66,272.79c-8.32,0.04-13.04-6.45-13.04-17.5c0-10.65,4.49-17.44,11.14-17.44c2.24,0,4.1,0.72,5.76,2.29v-2.44h4.98
				l-0.14,32.82C389.25,271.84,385.82,272.78,382.66,272.79 M382.16,266.14c0.98,0,2.51-0.15,4.26-0.79l0.09-18.51
				c-1.59-1.59-3.13-2.34-4.81-2.34c-4.18,0-6.86,4.07-6.86,10.86C374.84,262.27,377.5,266.15,382.16,266.14"/>
			<polygon style="clip-path:url(#SVGID_00000027586687723512884310000017450778871867646618_);fill:#1F457E;" points="
				175.31,223.98 180.23,223.98 180.23,244.32 193.55,244.32 193.55,251 180.23,251 180.23,273.05 175.31,273.05 175.31,251 
				161.99,251 161.99,244.32 175.31,244.32 			"/>
			<path style="clip-path:url(#SVGID_00000027586687723512884310000017450778871867646618_);fill:#1F457E;" d="M441.03,238.3
				c1.61,0,2.9,1.9,2.9,4.29c0,2.43-1.29,4.31-2.91,4.31c-1.62,0-2.93-1.89-2.93-4.31c0-2.39,1.31-4.29,2.93-4.29H441.03z
				 M441.02,238.96c-1.3,0-2.37,1.62-2.37,3.62c0,2.04,1.06,3.64,2.38,3.64c1.32,0.02,2.36-1.6,2.36-3.62
				c0-2.02-1.05-3.64-2.36-3.64H441.02z M440.46,245.09h-0.52v-4.79c0.28-0.06,0.54-0.12,0.93-0.12c0.5,0,0.83,0.16,1.02,0.36
				c0.19,0.21,0.3,0.53,0.3,0.99c0,0.63-0.29,1.01-0.64,1.17v0.03c0.28,0.08,0.48,0.46,0.55,1.17c0.08,0.74,0.16,1.03,0.21,1.18
				h-0.55c-0.08-0.15-0.16-0.59-0.22-1.22c-0.08-0.61-0.29-0.84-0.71-0.84h-0.37V245.09z M440.46,242.43h0.38
				c0.43,0,0.8-0.23,0.8-0.82c0-0.42-0.21-0.84-0.8-0.84c-0.17,0-0.29,0.02-0.38,0.04V242.43z"/>
		</g>
	</g>
</g>
</svg>
